/* XPM */
static char *_3cf83252e8d40a5baaaf52c5b4dc1fa[] = {
/* columns rows colors chars-per-pixel */
"64 64 20 1 ",
"  c #322E2D",
". c #65332F",
"X c #7D3530",
"o c #55433A",
"O c #684A3C",
"+ c #464646",
"@ c #7D5644",
"# c #844C33",
"$ c #9A4330",
"% c #84533D",
"& c #9C5A3C",
"* c #AE4832",
"= c #C16239",
"- c #A76843",
"; c #B37149",
": c #C27B50",
"> c #BE8855",
", c #CF9A67",
"< c #E5AA7A",
"1 c #E8CE84",
/* pixels */
"::::::::::::::::::::::::::::::::::::::::::::::::::::::::::::::::",
":+&&&&&&&&&&&&&&&&&&&&&&&&&&&&&&&&&&&&&&&&&&&&&&&&&&&&&&&&&&&&+<",
":&+&&&&&&&&&&&&&&&&&&&&&&&&&&&&&&&&&&&&&&&&&&&&&&&&&&&&&&&&&&+<<",
":&&                                                          :<<",
":&&                                  -,,- O&&O               :<<",
":&&                                  -,,- O&&O               :<<",
":&& -,,,- -,,,- O&&&O O&&&O          -,,- O&&O               :<<",
":&& -,,,- -,,,- O&&&O O&&&O  X*=***X ---- OOOO X****X X****X :<<",
":&& -111- -111- O:::O O:::O  X*=***X -,,- O&&O X****X X****X :<<",
":&& ->>>- ->>>- O@@@O O@@@O  X*****X ---- OOOO X****X X****X :<<",
":&& -,,,- -,,,- O&&&O O&&&O  XXXXXXX -1,- O:&O X****X X****X :<<",
":&& -,,,- -,,,- O&&&O O&&&O  X*===*X -1,- O:&O X****X X****X :<<",
":&& -111- -111- O:::O O:::O  X*****X -1,- O:&O X*XX*X X*X**X :<<",
":&& ->>>- ->>>- O@@@O O@@@O  XXXXXXX -1,- O:&O X*X=*X X**X*X :<<",
":&& -,,,- -,,,- O&&&O O&&&O  X*===*X -1,- O:&O X**X*X X**X*X :<<",
":&& -,,,- -,,,- O&&&O O&&&O  X*=***X -1,- O:&O X*X=*X X*X=*X :<<",
":&& -111- -111- O:::O O:::O  X*=***X -1,- O&&O X*X=*X X*XX*X :<<",
":&& ->>>- ->>>- O@@@O O@@@O  X*=***X -,,- O&&O X*XX*X X**X*X :<<",
":&& -,,,- -,,,- O&&&O O&&&O  X*=***X -,,- O&&O X*X=*X X*X*=X :<<",
":&& -,,,- -,,,- O&&&O O&&&O  X*=***X -,,- O&&O X**X*X X**X=X :<<",
":&& -111- -111- O:::O O:::O  X*=***X -,,- O&&O X*XX*X X*XX*X :<<",
":&& ->>>- ->>>- O@@@O O@@@O  X*=***X -,,- O&&O X*==*X X*==*X :<<",
":&& -,,,- -,,,- O&&&O O&&&O  X*=***X -,,- O&&O XXXXXX XXXXXX :<<",
":&& -,,,- -,,,- O&&&O O&&&O  X*=***X -,,- O&&O X*==*. X*==*X :<<",
":&& -111- -111- O:::O O:::O  XXXXXX. -,,- O&&O XXXXX. .XXXX. :<<",
":&& #>>># #>>># o@@@o o@@@o  X*****. #,,# o&&o .****. .****. :<<",
":&& #,,,# #,,,# o&&&o o&&&o  X*XXX*. #,,# o&&o .****. .****. :<<",
":&& #;;-# #;;-# o%%%o o%%%o  .$XXX$. #;;# o%%o .$$$$. .$$$$. :<<",
":&& #;;;# #;;;# o%%%o o%%%o  .$$$$$. #;;# o%%o .$$$$. .$$$$. :<<",
":&& #;;;# #;;;# o%%%o o%%%o  .$$$$X. #;;# o%%o .$$$$. .$$$$. :<<",
":&&<<<<<<<<<<<<<<<<<<<<<<<<<<<<<<<<<<<<<<<<<<<<<<<<<<<<<<<<<<:<<",
":&<<<<<<<<<<<<<<<<<<<<<<<<<<<<<<<<<<<<<<<<<<<<<<<<<<<<<<<<<<<<<<",
"::::::::::::::::::::::::::::::::::::::::::::::::::::::::::::::<<",
":+&&&&&&&&&&&&&&&&&&&&&&&&&&&&&&&&&&&&&&&&&&&&&&&&&&&&&&&&&&&&&<",
":&+                                                          +<<",
":&& X**X X**X                           X**X                 :<<",
":&& X**X X**X                           X**X                 :<<",
":&& X**X X**X  O&&&O O&&&O -,,,- O&&&O  X**X         X*X X*X :<<",
":&& X**X X**X  O&&&O O&&&O -,,,- O&&&O  XXXX O:&&&&O X*X X*X :<<",
":&& X==X X==X  O:::O O:::O -111- O:::O  X==X O:&&&&O X*X X*X :<<",
":&& XXXX XXXX  O@@@O O@@@O ->>>- O@@@O  X**X O:&&&&O X=X X=X :<<",
":&& XXXX XXXX  O&&&O O&&&O -,,,- O&&&O  XXXX O:&&&&O X=X X=X :<<",
":&& X**X X**X  O&&&O O&&&O -,,,- O&&&O  X**X O:&&&&O X=X X=X :<<",
":&& X**X X**X  O:::O O:::O -111- O:::O  X**X O:&&&&O X=X X=X :<<",
":&& X**X X**X  O@@@O O@@@O ->>>- O@@@O  X**X O:&&&&O X=X X=X :<<",
":&& X**X X**X  O&&&O O&&&O -,,,- O&&&O  X**X O:&&&&O X=X X=X :<<",
":&& X**X X**X  O&&&O O&&&O -,,,- O&&&O  X**X O:&&&&O X=X X=X :<<",
":&& X**X X**X  O:::O O:::O -111- O:::O  X**X O:&&&&O X=X X=X :<<",
":&& X**X X**X  O@@@O O@@@O ->>>- O@@@O  X**X O:&&&&O X=X X=X :<<",
":&& X**X X**X  O&&&O O&&&O -,,,- O&&&O  X**X O:&&&&O X=X X=X :<<",
":&& X**X X**X  O&&&O O&&&O -,,,- O&&&O  X**X O:::::O X=X X*X :<<",
":&& X**X X**X  O:::O O:::O -111- O:::O  X**X O@@@@@O X*X X*X :<<",
":&& X**X X**X  O@@@O O@@@O ->>>- O@@@O  X**X O:&&&&O X*X X*X :<<",
":&& X==X X==.  O&&&O O&&&O -,,,- O&&&O  X**X O:::::O X*X X*X :<<",
":&& .XX. .XX.  O&&&O O&&&O -,,,- O&&&O  XXXX O@@@@@O X*X X*. :<<",
":&& .XX. .XX.  O:::O O:::O -111- O:::O  X==. O:&&&&O .*X X*. :<<",
":&& .**. .**.  o@@@o o@@@o #>>># o@@@o  X**. O:&&&&O .*X .*. :<<",
":&& .**. .**.  o&&&o o&&&o #,,,# o&&&o  .$$. o:&&&&o .*X .*. :<<",
":&& .$$. .$$.  o%%%o o%%%o #;;-# o%%%o  .$$. o%%%%%o .$. .$. :<<",
":&& .$$. .$$.  o%%%o o%%%o #;;;# o%%%o  .$$. o%%%%%o .$. .$. :<<",
":&& .$$. .$$.  o%%%o o%%%o #;;;# o%%%o  .$$. o%%%%%o .$. .$. :<<",
":&::::::::::::::::::::::::::::::::::::::::::::::::::::::::::::<<",
"::<<<<<<<<<<<<<<<<<<<<<<<<<<<<<<<<<<<<<<<<<<<<<<<<<<<<<<<<<<<<:<",
":<<<<<<<<<<<<<<<<<<<<<<<<<<<<<<<<<<<<<<<<<<<<<<<<<<<<<<<<<<<<<<:"
};
