/* XPM */
static char *b8a34927faac42ccbe57df39218024db[] = {
/* columns rows colors chars-per-pixel */
"64 64 9 1 ",
"  c #269D4D",
". c #22B14C",
"X c #A8E61D",
"o c #B5A666",
"O c #CFBF7C",
"+ c #87C44C",
"@ c #91D24D",
"# c #F5E49C",
"$ c None",
/* pixels */
"$####OXXX+++     +++      + oo@@X@+++     +++      ++++XXX  $$$$",
"$$$OO XXX+++     +++     .++  @@O#+++     +++      ++++@XXXX$$$$",
"$$$$ XXX@+++     +++     .++@#oXoO#++     +++      +++++XXXX$$$$",
"$$$$XXX@++++     +++     .++#Oo@  O#+     +++      +++++@XXX$$$$",
"$$$$XX@+++++     +++      +#O  +++  #     +++      +++++++++$$$$",
"$$$$++++++++     +++      # ++++++++      +++.     +++++++++$$$$",
"$$$$+++++++.     +++       +++@+++++      +++.     +++++++++$$$$",
"$$$$+++++++.    .+++       ++@X@++++      .+++     .+++++++@$$$$",
"$$$$+++++++     .+++       ++XXX+++.      .+++     .++++++@X$$$#",
"$$$$@+++++.     ++++       ++XXX+++.       +++      ++++++XX$##$",
"$$$$X@++++      +++.       ++XXX+++        +++      ++++++X##O$$",
"$$$$XX+++.      +++.       ++@X@+++        +++      ++++++XOO$$$",
"$####X+++       +++        +++@++++        +++      .+++++X $$$$",
"$$$ooX+++       +++        .+++++++        +++.     .+++++@X$$$$",
"$$$$X@+++       +++        .+++++++        ++++      ++++++@$$$$",
"$$$$@++++       +++         +++++++        ++++      +++++++$$$$",
"$$$$+++++       +++         ++++@++        ++++      +++++++$$$$",
"$$$$+++++       +++.        +++@X@+        ++++.     .+++++@$$$$",
"$$$$+++++       ++++        .++XXX+.       ++++.      ++++@X$$$$",
"$$$$@++++       .+++        .++XXX+.       +++++      ++++XX$$$$",
"$$$$X@+++       .+++         ++XXX++       +++++      ++++XO#$$$",
"####XX+++       .+++.        ++@X@++       .++++      ++++XooO#$",
"$$O##X+++        ++++        .++@+++       .++++      ++++X $$$#",
"$$$ooX+++        ++++         ++++++        ++++      ++++@X$$$$",
"$$$$XX+++        ++++         ++++++        ++++      +++++@$$$$",
"$$$$X@+++        ++++         ++++++.       +++.      ++++++$$$$",
"$$$$@++++        ++++         ++XX++.       +++       ++++++$$$$",
"$$$$+++++.       ++++        .++XX+++       +++      .++++++$$$$",
"$$$$++++++       ++++        ++++++++.      +++      +++++++$$$$",
"$$$$++++++       ++++       .+++++++++      +++      +++++++$$$$",
"$$$$@+++++.      ++++       ++++++++#+      +++     .++++++@$$$$",
"##$$XX@+++.      ++++       #++@XX@# +.     +++     +++++@XX$$$#",
"$O##XXX++++      ++++      . #+XXX#O+++     +++    .+++++XXX$##$",
"$$OO#XX++++      ++++      .+O#XX#O +++    .+++    .+++++XXO#O$$",
"$$$oo X++++     .++++      ++ O#XooX@++    .+++    ++++++XXoo$$$",
"$$$$ XX++++     .++++      ++ oo@  X@++    +++.    ++++++XX $$$$",
"$$$#OXX++++     .+++.      +++  @@XX+++    +++     ++++++XXX$$$$",
"$$#OoXX++++     .+++       +++@XXo#@++.    +++     ++++++XXO#$$$",
"$#Oo XX++++     ++++       +++#o@oo#++     +++     ++++++@XoO#$$",
"#O$$XX@++++     ++++       ++#Oo+  O#+     +++     +++++++XX$O#$",
"#$$$@++++++     ++++       .+O  +++ O#     +++     ++++++++@$$$#",
"$$$$++++++.     ++++       .# ++++++  #    +++     +++++++++$$$$",
"$$$$++++++.     ++++        ++++++++       +++.    .++++++++$$$$",
"$$$$@+++++     .++++        +++@+++.       +++.     ++++++++$$$$",
"$$$$X@++++     .++++        ++@X@++.       .+++     ++++++++$$$$",
"$$$$XX+++.     .++++        ++XXX++         +++     .++++++@$$$$",
"$####X+++.     .++++       .++XXX++         +++      ++++++X$$$$",
"$$$ooX+++      .++++       .++XXX++         +++      +++++@X$$$$",
"$$$$ @+++       ++++       +++@X@++         +++      +++++X####$",
"$$$$@++++       ++++       ++++@+++         +++      +++++XOO$$$",
"$$$$+++++       ++++       ++++++++         +++      +++++XX$$$$",
"$$$$@++++       ++++       +++@+++.        .+++      .++++@X$$$$",
"$$$$X@+++       .+++       ++@X@++.        .+++      .+++++@$$$$",
"$#$$XX+++       .+++.      ++XXX++         ++++       +++++@$$$$",
"$$O#XX+++       .++++      ++XXX++         ++++       ++++++$$$$",
"$$$O#X+++.       ++++     .++XXX++        .++++       +++++@$$$$",
"$$$$ X++++       ++++.    .++@X@++.       .++++       ++++@XO#$$",
"$$$$X@++++       ++++.    ++++@++++.      +++++      .+++++X$$$$",
"$$$$@+++++.      +++++    +++++++++#      ++++.      .++++++$$$$",
"$$$$++++++.      +++++    ++++++++#      .++++.      +++++++$$$$",
"$$$$+++++++      +++++    #++++++#O      .++++      .+++@XXX$$$#",
"$$$$X@+++++      +++++     #+@X@#O +.    ++++.      .++@XXXX###$",
"$$$$XXX@+++.     ++++.     O#XXXoo +.    ++++.     .+++XXX##OO$$",
"$$$$XXXX++++     ++++     + OOXX  +++    ++++.     .+++XXXOO$$$$"
};
