/* XPM */
static char *_26dd3b942714549dce82042b432d370[] = {
/* columns rows colors chars-per-pixel */
"64 64 4 1 ",
"  c #7C2D2D",
". c #8A3A34",
"X c #A2432F",
"o c #AE4832",
/* pixels */
"XXXXXXX ...XXXXXXX ..X ...XXXXXXXX ...XXXXXXXX.... XXXXXXooXXXXX",
"XXXXXX ....XXXXXX ...X ..XXXXXXXX ....XXXXXXXXX.... XXXXXooXXXXX",
"X.XXXX ....XXXXXX ...XXXXXXXoXXXX ...XXXXXXXXXXX.... XXXXXXXX.XX",
"XXX.XX ....XXXXXX ..XXXXXXXXXXXX ....XXXXXXXXXXXX....  XXXXXXXXX",
"XXXXXX ....XXXXXX ..XXXXXXXXXXX ....XXXXXXXXX.XXXX.....   XXXXXX",
"XoXXXX ....XXXXXX .. XXXXXXXX  ....XXXXXXXXXXXXXXXX.......  XXXX",
"XXXXXX ....XXXXXXX ..        .....XXXXXXXXXXXXXXXXXXX.......  XX",
"XXXXXX .... XXXXXXX .............XXXXXXXXoXXXXXXXXXXXXX.......  ",
" XXXXXX ... XXXXXXXXX.........XXXXXXXXXXXXXXXXXXXXXXXXXXX.......",
". XXXXX .... XXXXXXXXXXXXXXXXXXXXXXXXXXXXXXXXXXXXXXXXXXXXXX.....",
".. XXXXX ... XXXXXXXXXXXXXXXXXXXXXXXXXXXXXXXX..XXXXXXXXXXXXXX...",
"... XXXXX.... XXXXXXXXXXXXXXXXXXXXXXXXXXXXXXX..XXXXXXXXXXXXXXX..",
".... XXXXX....  XXXXXXXXXXXXXXXXXXXXXXXX.XXXXXXXX..XXXXXXXXXXXX.",
"..... XXXXX.....   XXXXXXXXXXXXXXXXXXXXXXXXXXXXXX..XXXXXXXXXXXXX",
"X..... XXXXXX......   XXXXXXXXXXXXXXXXXXXXXXXXXXXXXXXXXXXXXXXXXX",
"XX..... XXXXXXX.......             XXXXXXXXXXXXXXXXXXXXXXXXoXXXX",
"XXX.....XXXXXXXXXX.................     XXXXXXXXXXXX.XXXXXXXXXXX",
"XXXX.....XXX.XXXXXXXXXXXX...............   XXXXXXXXXXXXXXXXXXXXX",
"XXXXX ...XXXXXXXXXXXXXXXXXXXXXXX...........  XXXXXXXXXXXXXXXXXXX",
"XXXXX ....XXXXXXXXXXXXXXXXXXXXXXXXXX......... XXXXXXXXXXXX     X",
"XXX.X ....XXXXXXXXXXXXXXXXXXXXXXXXXXXXXX...... XXXXXXXXXX ..... ",
" XXXXX ...XXXXXXXooXXXXXXXXXXXXXXXXXXXXXXX..... XXXXXXXX .......",
". XXXX ...XXXXXXXooXXXXXXXXXXXXXXXXXXXXXXXX .....XXXXXX ...XXX .",
"..XXXX ...XXXXXXXXXXXXXXX           XXXXXXXX ....XXXXXX ..XXXXX ",
"..XXXX ...XXXXXoXXXXXXX  ...........  XXXXXXX ....XXXX ...XXXXX ",
"XXXXXX ...XXXXXXXXXXXX ............... XXXXXX ....XXXX ...XXXXXX",
"XXXXXX ...XXXXXXXXXXX .....XXXXXXXXX... XXXXXX ...XXXX ...XXX   ",
"XXXXX ....XXXXXXXXXX ....XXXXXXXXXXXX .. XXXXX ...XXXX ...XXX ..",
" XXX ....XXXXXXXXXX ....XXXXXXXXXXXXXX ..XXXXX ...XXXX ...XXX ..",
".   .....XXXXXXXXXX ...XXXXXXXXXXXXXXXX .XXXXX ...XXXX ...XXXX..",
"........XXXXXXXXXX ...XXXXXXX     XXXXX .XXXoX ...XXXX ....XXXX.",
"X......XXXXXXXXXXX ...XXXXXX ..... XXXX .XXXXX ....XXXX ...XXXXX",
"XXXXXXXXXXXXXXXXX ....XXXXX ..XX ..XXXX .XXXXX ...XXXXX ....XXXX",
"XXXXXXXXXXXXXXXXX ...XXXXXX .XXX ..XXX ..XXXX ....XXXXXX ...XXXX",
"XXXXXXXXXXXXXXXXX ...XXX.XX .XXXXXX   ...XXXX ....XXXXXX ... XXX",
"XXXXXXXXXXXXXXXXX ...XXXXXX .XXXXXX ....XXXX .....XXXXXXX.... XX",
"XXXXXXXXXXXXXXXXX ...XXXXXX .XXXXXX ...XXXX .....XXXXXXXXX.... X",
"XXXXXXX.XXXXXXXXX ...XXXXXX . XXXXXXXXXXXX ......XXXXXXXXXX.... ",
" XXXXXXXXXXXXXXXX ...XXXXXXX . XXXXXXXXX  ......XXXXXXXXXXXX....",
"..XXXXXXXXXXXXXXX ....XXXXXX ..  XXXXX  .......XXXXXXXXXX.XXX...",
"...XXXXXXXXXXXXXXX ...XXXXXXX ...     ........XXXXXXXXXXXXXXXX..",
"....XXXXXXXXXXXXXX ....XXXXXX ...............XXXXXXXXX.XXXX..XX.",
" ....XXXXX..XXXXXXX.... XXXX XXX...........XXXXXXXXXXXXXXXX..XXX",
"X ....XXXX..XXXXXXX..... XX .XXXXXXX.XXXXXXXXXXXXXXXXXXXXXXXXXXX",
"XX ....XXXXXXXXXXXXX..... X XXXXXXXXXXXXXXXXXXXXXXXXXXXXXXXXXXXX",
"XX ....XXXXXX.XXXXXXX..... .XXXXXXXXXXXXXoXXX.XXX       XXXXXXXX",
"XXX ....XXXXXXXXXXXXXX......XXXXXXXXXXXXXXXXXXX  .......  XXXXXX",
"XXX ....XXXXXXXXXXXXXXX.....  XXXXXXXXXXXXXXXX ............XXXXX",
"XXX ....XXXXXXXXXXXXXXXX......  XXXXXXooXXXXX .....XXXXXX ..XXXX",
"oXX ....XXXXXXXXXXXXXXXXXX......  XXXXooXXXX ....XXXXXXXXX .XXXX",
"XXX .....XXXXXXXXXXXXXXXXXXX...... XXXXXXXXX ...XXXXXXXXXX .XXXX",
"XXX ....XXXXXoXXXXXXXXXXX.XXXX .... XXXXXXX ....XXXXXXXXX  .XXXX",
"XXX ....XXXXXXXXXXXXXX..XXXXXXX .... XXXXXX ...XXXXXXXXXX ..XXXX",
"XX .....XXXXXXXoXXXXXX..XXXXXXXX ....XXXXXX ...XXXXXX   X ..XXXX",
"XX ....XXXXXXXXXXXXXXXXXXXXXXXXX ....XXXXXX ..XXXXXXX ..XXXXXXoX",
"X .....XXXXXXXXXXXXXXXXXXXXXXXXXX ....XXoXX ..XXXXXXX .XXXXXXXXX",
" .....XXXXXXXXXXXXXXXXXXXXXXXXXXX ....XXXXX ..XXXXXXX .XXXXXXXXX",
"......XXXXXXX          XXXXXXXXXXX ...XXXXX ..XXXXXXX . XXXXXX  ",
".....XXXXXX  .......... XXXXXXXXXX ...XXXXX ..XXXXXXX ..      ..",
"...XXXXXXX .....XXXXX .. XXXXXXXXX ...XXXXX ...XXXXXXX..........",
".XXXXXXXX ....XXXXXXXX .. XXXXXXXX ...XXXX. ...XXXXXXXX.........",
"XXXXXXXX ....XXXXXXXXXX ..XXXXXXXX ...XXXXXX .. XXXXXXXXXXXXXXXX",
"XXX.XXX ....XXXXXXXXXXX ..XXXXXXXX ...XXXXXX ... XXXXXXXXXXXXXXX",
"XXXXXXX ....XXXXXXXXXX ...XXXXXXXX ...XXXXXXX.... XXXXXXXXXoXXXX"
};
