/* XPM */
static char *_ce46214974d4c37abeb74991f29013f[] = {
/* columns rows colors chars-per-pixel */
"64 64 6 1 ",
"  c #272727",
". c #393939",
"X c #4E4E4E",
"o c gray36",
"O c #9B9B9B",
"+ c #FFFFFF",
/* pixels */
"++oo++++++++++++++++++++oo+++++++++++++o+++++++++++++++++o++++++",
"+++o+++++++++++++++++++++o+++++++++++++o++++++++++++++++o+++++++",
"++++o++++++++++++++++++++o+++++++++++++o++++++++++++++++o+++++++",
"+++++o++++++++++++++++++o+++++++++++++oo++++++++++++++oo++++++++",
"o++++o++++++++o+++++++++X++++++++++++oo+++++++o+++++++oo++++++++",
"ooooXX+++++++o++++++++++X+++++++++++Xo++++++++o++++Xooo+++++++++",
"+++++XXXoo+++o++++++++++XXoo++++++++oO+++++++o+++++o++++++++++++",
"+++++++oooXoo+++++++++XXoO++o+++++++oO+++++++o+++++o++++++++++++",
"+++++++++++XX++++++++oO+++++oo++XXXoo++++++++o+++++X++++++++++++",
"+++++++++++XX++++++++o+++++++XXXXooo+++++++++X+++++X++++++++++++",
"+++++++++++XXXX++++++o+++++++XXXOOO+++++++++XX++ooXXXo+++++++++o",
"++++++++++XXXXXoooXXXX++++++++XO++++++++++++XXXXoO++++o++++++ooo",
"+++++++++XXoooO++++XXX++++++++o++++++++++XXoXXoO++++++++++++o+++",
"++++++++XXXO++++++++oX++++++++o+++++++++XXoOO+++++++++++++Xo++++",
"+++++++Xoo++++++++++oXX++++++XX+++++++++XXO+++++++++++++++X+++++",
"+++++++Xo++++++++++++oX+++..XXX+++o+++++X.O+++++++++++++++o+++++",
"+++++++X+++++++++++++XXX...XXXX+++o+++++X.X++++++++++++XXo++++++",
"+XXoXXXX+++++++++++++XXXX..XOO+++++o++++XXXXX+++++++++XoO+++++++",
"+X+++OXX++++++++++++++OOXXXXO++++++X++XXXXO++X++++++++oO++++++++",
"oo+++++oo+++++++++++++++XX.XO++++++XXX..XO++++XX+++++XX+++++++++",
"++++++++Oo++++++++++++++XX..+++++++XX..XX+++++X+++XXXXX+++++++++",
"+++++++++o++++++++++++++XX..X+++++XXXXXOO+++++XX..XXXXXX++++++++",
"+++++++++o+++++++++++++XXXXX.XXXXXXX.XO+++++++X..XXoO++o++++++++",
"+++++++++o++++++++++XXX+OOOXXXXXXX...XO++++++XX.XOO++++oo+++++++",
"+++++++++ooXXX+++++XO++++++OX..XX...XXO++++++XXXO++++++++ooXX+++",
"+++++++++++++XXX..XO+++++++OXX.....XXX++++++XX.XO+++++++++++o+++",
"++++++++++++++++.OO+++++++++XX.....XXX++++XX...X+++++++++++++o++",
"++++++++++++++++XO++++++++++XX.....XXXXXXXX...XX+++++++++++++ooo",
"ooooXX++++++++++X+++++++++++XXX. ...XXXXX....XXO++++++++++++++++",
"++++++X+++++++++XX++++++++++XX..  ...........XO+++++++++++++++++",
"++++++ooXXX+++++X.X+++++++++X...     ........XO+++++++++++++++++",
"+++++++++XXXXXXX...+++++++XXX..     ...X..X...XX++++++++++++++++",
"+++++++++XXXXOOXXX.XXXXXXXXX..      ..XXXXXXXXXX+++++++++++ooooo",
"++++++++XXoO++++OXXXXX...........   ..XXOOOOOX..X++++++++++o++++",
"++++++Xoooo++++++OXXXXXX..............XXO++++O..XXX+++XXooo+++++",
"++++ooooOO+++++++++OOOOXX...XXXXXX...XXO++++++XXXooooXXXO+++++++",
"+++oo+O++++++++++++++++OXX.XXXXXXXX..XXO++++++X+++OOOXXX++++++++",
"+++o++++++++++++++++++++XXXXXOOOOXXX.XX+++++++X++++++OXX++++++++",
"oXX+++++++++++++++++++++X.XO++++++OXXXX+++++++X+++++++XXXo++++++",
"+o++++++++++++++++++++++X.O++++++++XX.X+++++++X+++++++o+++ooo+++",
"+o+++++++++++++++++++++X..+++++++++XX..++++++X+++++++oo+++++o+++",
"++o+++++++++++++++++++X..X+++++++++XX..X+++++X++++++o++++++++ooo",
"++o+++++++++++++++++XXXXXX+++++++++X....XXX..X++++++++++++++++++",
"++o++++++++++++++++XXXOOOX++++++++X.XXXXX...XXX+++++++++++++++++",
"ooo++++o+++++++++++XXO+++X+++++++XXXOOOXXX..XXXXXXX+++++++++++++",
"o+++++++o++++++++++XO++++XX++++++XO+++++OX.XOOOOOoXXX+++++++++++",
"++++++++ooo+++++++XX+++++++X+++++X+++++++XXX+++++Oooooooo+++++++",
"+++++++++++X++++++..+++++++XX++++X++++++++XX++++++++++++o+++++++",
"+++++++++++o+++++...X++++++XXXXXX++++++++++X++++++++++++oo++++++",
"+++++++++++oXXXXXX.XX++++XXX++++X++++++++++oX+++++++++++++o+++++",
"++++++++++++XXO+++++XXXXXXO+++++o++++++++++oX+++++++++++++++++++",
"+++++++++++oXO++++++++XXo++++++++o+++++++++ooXXX++++++++++++++++",
"+++++++++++ooO++++++++oO+++++++++o+++++++++++XXX++++++++++++++++",
"+++++++++++oo+++++++++o+++++++++++++++++++++++XX++++++++++++++++",
"++++++++++ooO+++++++++o+++++++++++++++++++++++XX+++++++++++++++o",
"++++++++XXo+++++++++++oo+++++++++++++++++++++XXXX+++++++++++ooo+",
"++++++++X+++++++++++++ooXX++++++++++++++++++oOOXo++++++++++o++++",
"++++ooXXX++++++++++++++++X++++++++++++++++ooo++Oo++++++++++o++++",
"++oo++XXX++++++++++++++++oX++++++++++++++o++++++oo++++++++oo++++",
"oo++++++o+++++++++++++++++oX+++++++++++++o+++++++XX++++++XX+++++",
"o+++++++o++++++++++++++++++o++++++++++++o+++++++++XXXoooXXX+++++",
"++++++++o++++++++++++++++++o++++++++++++++++++++++X+++++++oo++++",
"++++++++o++++++++++++++++++o++++++++++++++++++++++o+++++++++o+++",
"++++++++oo+++++++++++++++++oo+++++++++++++++++++++o++++++++++o++"
};
