/* XPM */
static char *_516289800121[] = {
/* columns rows colors chars-per-pixel */
"64 64 6 1 ",
"  c #272727",
". c #393939",
"X c #4E4E4E",
"o c gray36",
"O c #9B9B9B",
"+ c #FFFFFF",
/* pixels */
"++++++++++++++++++++++++++++++++++++++++++++++++++++++++++++++++",
"++++++++++++++++++++++++++++++++++++++++++++++++++++++++++++++++",
"+++++++++++++++++++++++++++++++++++++++o++++++++++++++++++++++++",
"++++++++++++++++++++++++++++++++++++++o++++++++++++++++o++++++++",
"+++++o+++++++++++++++++++++++++++++++o++++++++++++++++o+++++++++",
"+++++X++++++++++++++++++++++++++++++Xo+++++++++++++Xooo+++++++++",
"++++++XXoo++++++++++++++++++++++++++o++++++++++++++o++++++++++++",
"+++++++oooXoo+++++++++++++++++++++++o++++++++++++++o++++++++++++",
"+++++++++++XX+++++++++++++++++++XXXoo++++++++++++++X++++++++++++",
"+++++++++++XX+++++++++++++++++XXXooo+++++++++++++++X++++++++++++",
"+++++++++++XXXX+++++++++++++++XXOOO+++++++++++++ooXX++++++++++++",
"++++++++++XXXXXoooXXXX++++++++XO++++++++++++XXXXoO++++++++++++++",
"+++++++++XXoooO++++XXX++++++++o++++++++++XXoXXoO++++++++++++o+++",
"++++++++XXXO++++++++oX++++++++o+++++++++XXoOO+++++++++++++Xo++++",
"+++++++Xoo++++++++++oXX++++++XX+++++++++XXO+++++++++++++++X+++++",
"+++++++Xo++++++++++++oX+++..XXX+++++++++X.O+++++++++++++++o+++++",
"+++++++X+++++++++++++XXX...XXXX+++++++++X.X++++++++++++XXo++++++",
"++XoXXXX+++++++++++++XXXX..XOO++++++++++XXX+++++++++++XoO+++++++",
"+X++++++++++++++++++++OOXXXXO+++++++++XXXXO+++++++++++oO++++++++",
"++++++++++++++++++++++++XX.XO++++++XXX..XO+++++++++++XX+++++++++",
"++++++++++++++++++++++++XX..+++++++XX..XX+++++++++XXXXX+++++++++",
"++++++++++++++++++++++++XX..X+++++XXXXXOO+++++XX..XXXXXX++++++++",
"+++++++++++++++++++++++XXXXX.XXXXXXX.XO+++++++X..XXoO++o++++++++",
"+++++++++++++++++++++XX+OOOXXXXXXX...XO++++++XX.XOO++++oo+++++++",
"+++++++++++++++++++++++++++OX..XX...XXO++++++XXXO++++++++ooX++++",
"+++++++++++++++++.+++++++++OXX.....XXX++++++XX.XO+++++++++++o+++",
"++++++++++++++++.+++++++++++XX.....XXX++++XX...X++++++++++++++++",
"++++++++++++++++X+++++++++++XX.....XXXXXXXX...XX++++++++++++++++",
"++++++++++++++++X+++++++++++XXX. ...XXXXX....XXO++++++++++++++++",
"++++++++++++++++XX++++++++++XX..  ...........XO+++++++++++++++++",
"++++++ooXXX+++++X.X+++++++++X...     ........XO+++++++++++++++++",
"+++++++++XXXXXXX...+++++++XXX..     ...X..X...XX++++++++++++++++",
"+++++++++XXXXOOXXX.XXXXXXXXX..      ..XXXXXXXXXX++++++++++++o+++",
"++++++++XXoO++++OXXXXX...........   ..XXOOOOOX..X++++++++++o++++",
"++++++Xoooo++++++OXXXXXX..............XXO++++O..XXX+++XXooo+++++",
"++++ooooOO+++++++++OOOOXX...XXXXXX...XXO++++++XXXooooXXXO+++++++",
"+++oo+O++++++++++++++++OXX.XXXXXXXX..XXO++++++++++OOOXXX++++++++",
"+++o++++++++++++++++++++XXXXXOOOOXXX.XX++++++++++++++OXX++++++++",
"++X+++++++++++++++++++++X.XO++++++OXXXX+++++++++++++++XXXo++++++",
"+o++++++++++++++++++++++X.O++++++++XX.X+++++++++++++++++++oo++++",
"+o+++++++++++++++++++++X..+++++++++XX..+++++++++++++++++++++o+++",
"++++++++++++++++++++++X..X+++++++++XX..X++++++++++++++++++++++++",
"++++++++++++++++++++XXXXXX+++++++++X....XXX+++++++++++++++++++++",
"+++++++++++++++++++XXXOOOX++++++++++XXXXX...XXX+++++++++++++++++",
"+++++++++++++++++++XXO+++X++++++++++OOOXXX..XXXXXXX+++++++++++++",
"+++++++++++++++++++XO++++XX+++++++++++++OX.XOOOOOoXXX+++++++++++",
"++++++++++++++++++XX+++++++X+++++++++++++XXX+++++Ooooooo++++++++",
"++++++++++++++++++..+++++++X++++++++++++++XX++++++++++++o+++++++",
"+++++++++++++++++...X++++++X+++++++++++++++X+++++++++++++o++++++",
"++++++++++++XXXXXX.XX++++XXX+++++++++++++++oX+++++++++++++++++++",
"++++++++++++XXO+++++XXXXXXO++++++++++++++++oX+++++++++++++++++++",
"+++++++++++oXO++++++++XXo++++++++++++++++++ooXXX++++++++++++++++",
"+++++++++++ooO++++++++oO+++++++++++++++++++++XXX++++++++++++++++",
"+++++++++++oo+++++++++o+++++++++++++++++++++++XX++++++++++++++++",
"++++++++++ooO+++++++++o+++++++++++++++++++++++XX++++++++++++++++",
"++++++++XXo+++++++++++oo++++++++++++++++++++++XXX+++++++++++++++",
"++++++++X+++++++++++++ooXX++++++++++++++++++++OXo+++++++++++++++",
"++++ooXXX++++++++++++++++X+++++++++++++++++++++Oo+++++++++++++++",
"++oo+++++++++++++++++++++oX+++++++++++++++++++++oo++++++++++++++",
"+o++++++++++++++++++++++++o++++++++++++++++++++++XX+++++++++++++",
"+++++++++++++++++++++++++++o++++++++++++++++++++++XXXoooXXX+++++",
"+++++++++++++++++++++++++++++++++++++++++++++++++++++++++++o++++",
"++++++++++++++++++++++++++++++++++++++++++++++++++++++++++++++++",
"++++++++++++++++++++++++++++++++++++++++++++++++++++++++++++++++"
};
