/* XPM */
static char *_516289813453[] = {
/* columns rows colors chars-per-pixel */
"64 64 6 1 ",
"  c #272727",
". c #393939",
"X c #4E4E4E",
"o c gray36",
"O c #9B9B9B",
"+ c #FFFFFF",
/* pixels */
"++++++++++++++++++++++++++++++++++++++++++++++++++++++++++++++++",
"++++++++++++++++++++++++++++++++++++++++++++++++++++++++++++++++",
"++++++++++++++++++++++++++++++++++++++++++++++++++++++++++++++++",
"++++++++++++++++++++++++++++++++++++++++++++++++++++++++++++++++",
"++++++++++++++++++++++++++++++++++++++++++++++++++++++++++++++++",
"+++++++++++++++++++++++++++++++++++++o++++++++++++++o+++++++++++",
"+++++++Xo+++++++++++++++++++++++++++o++++++++++++++o++++++++++++",
"+++++++++oXoo+++++++++++++++++++++++o++++++++++++++o++++++++++++",
"+++++++++++XX++++++++++++++++++++XXo+++++++++++++++X++++++++++++",
"++++++++++++X+++++++++++++++++XXXo+++++++++++++++++X++++++++++++",
"++++++++++++XXX+++++++++++++++XX++++++++++++++++ooX+++++++++++++",
"+++++++++++XXXXoooXXXX++++++++XO+++++++++++++XXXo+++++++++++++++",
"+++++++++XXoooO++++XXX++++++++o+++++++++++XoXXoO++++++++++++++++",
"+++++++++XXO++++++++oX++++++++o+++++++++XXoOO+++++++++++++++++++",
"++++++++o+++++++++++oXX++++++XX+++++++++XXO+++++++++++++++++++++",
"+++++++X+++++++++++++oX+++..XXX+++++++++X.O+++++++++++++++o+++++",
"+++++++X+++++++++++++XXX...XXXX+++++++++X.X++++++++++++XXo++++++",
"++++++X++++++++++++++XXXX..XOO++++++++++XXX+++++++++++X+++++++++",
"++++++++++++++++++++++OOXXXXO+++++++++XXXXO+++++++++++o+++++++++",
"++++++++++++++++++++++++XX.XO+++++++XX..XO++++++++++++X+++++++++",
"++++++++++++++++++++++++XX..+++++++XX..XX+++++++++++XXX+++++++++",
"++++++++++++++++++++++++XX..X+++++XXXXXOO++++++++.XXXXXX++++++++",
"+++++++++++++++++++++++XXXXX.XXXXXXX.XO+++++++X..XXoO++o++++++++",
"+++++++++++++++++++++XX+OOOXXXXXXX...XO+++++++X.XOO++++oo+++++++",
"+++++++++++++++++++++++++++OX..XX...XXO+++++++XXO++++++++o++++++",
"+++++++++++++++++++++++++++OXX.....XXX+++++++X.XO+++++++++++++++",
"++++++++++++++++.+++++++++++XX.....XXX+++++X...X++++++++++++++++",
"++++++++++++++++X+++++++++++XX.....XXXXXXXX...XX++++++++++++++++",
"++++++++++++++++X+++++++++++XXX. ...XXXXX....XXO++++++++++++++++",
"++++++++++++++++XX++++++++++XX..  ...........XO+++++++++++++++++",
"+++++++oXXX+++++X.++++++++++X...     ........XO+++++++++++++++++",
"++++++++++XXXXXX...+++++++XXX..     ...X..X...XX++++++++++++++++",
"++++++++++XXXOOXXX.XXXXXXXXX..      ..XXXXXXXXXX++++++++++++++++",
"++++++++XXoO++++OXXXXX...........   ..XXOOOOOX..X+++++++++++++++",
"+++++++oooo++++++OXXXXXX..............XXO++++O..XXX++++++oo+++++",
"+++++ooo+++++++++++OOOOXX...XXXXXX...XXO++++++XXXooooXXXO+++++++",
"+++oo++++++++++++++++++OXX.XXXXXXXX..XXO++++++++++OOOXXX++++++++",
"+++o++++++++++++++++++++XXXXXOOOOXXX.XX++++++++++++++OXX++++++++",
"++X+++++++++++++++++++++X.XO++++++OXXXX+++++++++++++++XXXo++++++",
"+o++++++++++++++++++++++X.O++++++++XX.X+++++++++++++++++++o+++++",
"+o+++++++++++++++++++++X..+++++++++XX..+++++++++++++++++++++++++",
"++++++++++++++++++++++X..X+++++++++XX..X++++++++++++++++++++++++",
"++++++++++++++++++++XXXXXX+++++++++X....XX++++++++++++++++++++++",
"+++++++++++++++++++XXXOOOX+++++++++.XXXXX...XXX+++++++++++++++++",
"+++++++++++++++++++XXO+++X++++++++++OOOXXX..XXXXXXX+++++++++++++",
"+++++++++++++++++++XO++++XX+++++++++++++OX.XOOOO+oXXX+++++++++++",
"++++++++++++++++++XX+++++++X+++++++++++++XXX+++++++++o++++++++++",
"++++++++++++++++++..+++++++XX+++++++++++++XX++++++++++++++++++++",
"+++++++++++++++++...+++++++XX++++++++++++++X++++++++++++++++++++",
"++++++++++++XXXXXX.++++++XXX+++++++++++++++oX+++++++++++++++++++",
"++++++++++++XXO+++++++XXXXO++++++++++++++++oX+++++++++++++++++++",
"++++++++++++XO++++++++XXo++++++++++++++++++ooXXX++++++++++++++++",
"+++++++++++ooO++++++++oO+++++++++++++++++++++XXX++++++++++++++++",
"+++++++++++oo+++++++++o++++++++++++++++++++++++X++++++++++++++++",
"+++++++++++oO+++++++++o++++++++++++++++++++++++X++++++++++++++++",
"+++++++++Xo+++++++++++o++++++++++++++++++++++++XX+++++++++++++++",
"++++++++X++++++++++++++o+++++++++++++++++++++++Xo+++++++++++++++",
"++++ooXXX+++++++++++++++++++++++++++++++++++++++o+++++++++++++++",
"+++o+++++++++++++++++++++++++++++++++++++++++++++o++++++++++++++",
"+++++++++++++++++++++++++++++++++++++++++++++++++XX+++++++++++++",
"+++++++++++++++++++++++++++++++++++++++++++++++++++XX+++++++++++",
"++++++++++++++++++++++++++++++++++++++++++++++++++++++++++++++++",
"++++++++++++++++++++++++++++++++++++++++++++++++++++++++++++++++",
"++++++++++++++++++++++++++++++++++++++++++++++++++++++++++++++++"
};
