/* XPM */
static char *_516289835142[] = {
/* columns rows colors chars-per-pixel */
"64 64 6 1 ",
"  c #272727",
". c #393939",
"X c #4E4E4E",
"o c gray36",
"O c #9B9B9B",
"+ c #FFFFFF",
/* pixels */
"++++++++++++++++++++++++++++++++++++++++++++++++++++++++++++++++",
"++++++++++++++++++++++++++++++++++++++++++++++++++++++++++++++++",
"++++++++++++++++++++++++++++++++++++++++++++++++++++++++++++++++",
"++++++++++++++++++++++++++++++++++++++++++++++++++++++++++++++++",
"++++++++++++++++++++++++++++++++++++++++++++++++++++++++++++++++",
"++++++++++++++++++++++++++++++++++++++++++++++++++++++++++++++++",
"++++++++++++++++++++++++++++++++++++++++++++++++++++++++++++++++",
"++++++++++++++++++++++++++++++++++++++++++++++++++++++++++++++++",
"++++++++++++++++++++++++++++++++++++++++++++++++++++++++++++++++",
"++++++++++++++++++++++++++++++++++++++++++++++++++++++++++++++++",
"++++++++++++++++++++++++++++++++++++++++++++++++++++++++++++++++",
"++++++++++++++++++XX++++++++++++++++++++++++++++++++++++++++++++",
"++++++++++++++++++++X+++++++++++++++++++++++++++++++++++++++++++",
"++++++++++++++++++++o+++++++++o+++++++++++o+++++++++++++++++++++",
"++++++++++++++++++++oX+++++++X+++++++++++X++++++++++++++++++++++",
"+++++++++++++++++++++o++++++XX+++++++++++.++++++++++++++++++++++",
"+++++++++++++++++++++X+++++X+++++++++++++.++++++++++++++++++++++",
"+++++++++++++++++++++XXXX++X++++++++++++XX++++++++++++++++++++++",
"+++++++++++++++++++++++OXXXX++++++++++++X+++++++++++++++++++++++",
"++++++++++++++++++++++++OX.X++++++++++..X+++++++++++++++++++++++",
"+++++++++++++++++++++++++X..+++++++++..O++++++++++++++++++++++++",
"+++++++++++++++++++++++++X..+++++++++XX+++++++++++++++++++++++++",
"+++++++++++++++++++++++++XXX.+++++++.XO+++++++++.+++++++++++++++",
"++++++++++++++++++++++++++OXXXX+++++.XO++++++++.++++++++++++++++",
"+++++++++++++++++++++++++++OX..X+++.XX+++++++++X++++++++++++++++",
"++++++++++++++++++++++++++++XX.....XXX+++++++++X++++++++++++++++",
"+++++++++++++++++++++++++++++X.....XXX++++++++.X++++++++++++++++",
"+++++++++++++++++++++++++++++X.....XXXX+++++..XO++++++++++++++++",
"+++++++++++++++++++++++++++++XX. ...XXXXX....XO+++++++++++++++++",
"+++++++++++++++++++++++++++++X..  ...........X++++++++++++++++++",
"+++++++++++++++++++++++++++++...     ........X++++++++++++++++++",
"++++++++++++++X+++++++++++++X..     ...XOOO+..X+++++++++++++++++",
"+++++++++++++++XXX.+++++++XX..      ..XO++++++X+++++++++++++++++",
"++++++++++++++++++XXXX...........   ..++++++++.+++++++++++++++++",
"+++++++++++++++++++XXXXX......OOOO....+++++++++.++++++++++++++++",
"+++++++++++++++++++++OOOX...O++++++..X++++++++++++++++++++++++++",
"++++++++++++++++++++++++XX.++++++++..X++++++++++++++++++++++++++",
"++++++++++++++++++++++++XX+++++++++O.X++++++++++++++++++++++++++",
"++++++++++++++++++++++++X.++++++++++XXX+++++++++++++++++++++++++",
"++++++++++++++++++++++++X.++++++++++X.X+++++++++++++++++++++++++",
"++++++++++++++++++++++++..+++++++++++..+++++++++++++++++++++++++",
"++++++++++++++++++++++X..X+++++++++++..+++++++++++++++++++++++++",
"+++++++++++++++++++++XXXXO+++++++++++...++++++++++++++++++++++++",
"++++++++++++++++++++XXOO+++++++++++++XXXX+++++++++++++++++++++++",
"+++++++++++++++++++XX+++++++++++++++++OXXX++++++++++++++++++++++",
"+++++++++++++++++++X++++++++++++++++++++OX.+++++++++++++++++++++",
"+++++++++++++++++++X+++++++++++++++++++++XXX++++++++++++++++++++",
"+++++++++++++++++++.+++++++++++++++++++++++X++++++++++++++++++++",
"++++++++++++++++++.++++++++++++++++++++++++X++++++++++++++++++++",
"+++++++++++++++++++++++++++++++++++++++++++o++++++++++++++++++++",
"++++++++++++++++++++++++++++++++++++++++++++X+++++++++++++++++++",
"++++++++++++++++++++++++++++++++++++++++++++++++++++++++++++++++",
"++++++++++++++++++++++++++++++++++++++++++++++++++++++++++++++++",
"++++++++++++++++++++++++++++++++++++++++++++++++++++++++++++++++",
"++++++++++++++++++++++++++++++++++++++++++++++++++++++++++++++++",
"++++++++++++++++++++++++++++++++++++++++++++++++++++++++++++++++",
"++++++++++++++++++++++++++++++++++++++++++++++++++++++++++++++++",
"++++++++++++++++++++++++++++++++++++++++++++++++++++++++++++++++",
"++++++++++++++++++++++++++++++++++++++++++++++++++++++++++++++++",
"++++++++++++++++++++++++++++++++++++++++++++++++++++++++++++++++",
"++++++++++++++++++++++++++++++++++++++++++++++++++++++++++++++++",
"++++++++++++++++++++++++++++++++++++++++++++++++++++++++++++++++",
"++++++++++++++++++++++++++++++++++++++++++++++++++++++++++++++++",
"++++++++++++++++++++++++++++++++++++++++++++++++++++++++++++++++"
};
