/* XPM */
static char *ab3aa41817ac4816f8a668dcd1186aab[] = {
/* columns rows colors chars-per-pixel */
"64 64 6 1 ",
"  c #272727",
". c #393939",
"X c #4E4E4E",
"o c gray36",
"O c #9B9B9B",
"+ c #FFFFFF",
/* pixels */
"++++++++++++++++++++++++++++++++++++++++++++++++++++++++++++++++",
"++++++++++++++++++++++++++++++++++++++++++++++++++++++++++++++++",
"+++++++++++++++++++++++++++++++++++++++o++++++++++++++++++++++++",
"++++++++++++++++++++++++++++++++++++++o++++++++++++++++o++++++++",
"+++++o+++++++++++++++++++++++++++++++o++++++++++++++++o+++++++++",
"+++++X++++++++++++++++++++++++++++++Xo+++++++++++++Xooo+++++++++",
"++++++XXoo+++++++++++++++++o++++++++oO+++++++++++++o++++++++++++",
"+++++++oooXoo+++++++++X+++++o+++++++oO+++++++o+++++o++++++++++++",
"+++++++++++XX++++++++o+++++++o++XXXoo++++++++o+++++X++++++++++++",
"+++++++++++XX++++++++o+++++++XXXXooo+++++++++X+++++X++++++++++++",
"+++++++++++XXXX++++++o+++++++XXXOOO+++++++++XX++ooXX++++++++++++",
"++++++++++XXXXXoooXXXX++++++++XO++++++++++++XXXXoO++++++++++++++",
"+++++++++XXoooO++++XXX++++++++o++++++++++XXoXXoO++++++++++++o+++",
"++++++++XXXO++++++++oX++++++++o+++++++++XXoOO+++++++++++++Xo++++",
"+++++++Xoo++++++++++oXX++++++XX+++++++++XXO+++++++++++++++X+++++",
"+++++++Xo++++++++++++oX+++..XXX+++++++++X.O+++++++++++++++o+++++",
"+++++++X+++++++++++++XXX...XXXX+++++++++X.X++++++++++++XXo++++++",
"++XoXXXX+++++++++++++XXXX..XOO++++++++++XXXXX+++++++++XoO+++++++",
"+X+++OXX++++++++++++++OOXXXXO+++++++++XXXXO+++++++++++oO++++++++",
"+++++++oo+++++++++++++++XX.XO++++++XXX..XO+++++++++++XX+++++++++",
"+++++++++o++++++++++++++XX..+++++++XX..XX+++++X+++XXXXX+++++++++",
"++++++++++++++++++++++++XX..X+++++XXXXXOO+++++XX..XXXXXX++++++++",
"+++++++++++++++++++++++XXXXX.XXXXXXX.XO+++++++X..XXoO++o++++++++",
"++++++++++++++++++++XXX+OOOXXXXXXX...XO++++++XX.XOO++++oo+++++++",
"++++++++++++X++++++XO++++++OX..XX...XXO++++++XXXO++++++++ooX++++",
"+++++++++++++XXX..XO+++++++OXX.....XXX++++++XX.XO+++++++++++o+++",
"++++++++++++++++.OO+++++++++XX.....XXX++++XX...X++++++++++++++++",
"++++++++++++++++XO++++++++++XX.....XXXXXXXX...XX++++++++++++++++",
"+++++X++++++++++X+++++++++++XXX. ...XXXXX....XXO++++++++++++++++",
"++++++X+++++++++XX++++++++++XX..  ...........XO+++++++++++++++++",
"++++++ooXXX+++++X.X+++++++++X...     ........XO+++++++++++++++++",
"+++++++++XXXXXXX...+++++++XXX..     ...X..X...XX++++++++++++++++",
"+++++++++XXXXOOXXX.XXXXXXXXX..      ..XXXXXXXXXX++++++++++++o+++",
"++++++++XXoO++++OXXXXX...........   ..XXOOOOOX..X++++++++++o++++",
"++++++Xoooo++++++OXXXXXX..............XXO++++O..XXX+++XXooo+++++",
"++++ooooOO+++++++++OOOOXX...XXXXXX...XXO++++++XXXooooXXXO+++++++",
"+++oo+O++++++++++++++++OXX.XXXXXXXX..XXO++++++X+++OOOXXX++++++++",
"+++o++++++++++++++++++++XXXXXOOOOXXX.XX+++++++X++++++OXX++++++++",
"++X+++++++++++++++++++++X.XO++++++OXXXX+++++++X+++++++XXXo++++++",
"+o++++++++++++++++++++++X.O++++++++XX.X+++++++++++++++++++oo++++",
"+o+++++++++++++++++++++X..+++++++++XX..++++++X++++++++++++++o+++",
"++++++++++++++++++++++X..X+++++++++XX..X+++++X++++++++++++++++++",
"++++++++++++++++++++XXXXXX+++++++++X....XXX..X++++++++++++++++++",
"+++++++++++++++++++XXXOOOX++++++++X.XXXXX...XXX+++++++++++++++++",
"+++++++++++++++++++XXO+++X++++++++XXOOOXXX..XXXXXXX+++++++++++++",
"+++++++++++++++++++XO++++XX++++++X++++++OX.XOOOOOoXXX+++++++++++",
"++++++++++o+++++++XX+++++++X+++++X+++++++XXX+++++Ooooooo++++++++",
"+++++++++++X++++++..+++++++XX++++X++++++++XX++++++++++++o+++++++",
"+++++++++++o+++++...X++++++XXXXX+++++++++++X+++++++++++++o++++++",
"+++++++++++oXXXXXX.XX++++XXX+++++++++++++++oX+++++++++++++++++++",
"++++++++++++XXO+++++XXXXXXO++++++++++++++++oX+++++++++++++++++++",
"+++++++++++oXO++++++++XXo++++++++++++++++++ooXXX++++++++++++++++",
"+++++++++++ooO++++++++oO+++++++++++++++++++++XXX++++++++++++++++",
"+++++++++++oo+++++++++o+++++++++++++++++++++++XX++++++++++++++++",
"++++++++++ooO+++++++++o+++++++++++++++++++++++XX++++++++++++++++",
"++++++++XXo+++++++++++oo+++++++++++++++++++++XXXX+++++++++++++++",
"++++++++X+++++++++++++ooXX++++++++++++++++++oOOXo+++++++++++++++",
"++++ooXXX++++++++++++++++X++++++++++++++++ooo++Oo+++++++++++++++",
"++oo++XXX++++++++++++++++oX++++++++++++++o++++++oo++++++++++++++",
"+o++++++o+++++++++++++++++o++++++++++++++++++++++XX+++++++++++++",
"++++++++o++++++++++++++++++o++++++++++++++++++++++XXXoooXXX+++++",
"++++++++++++++++++++++++++++++++++++++++++++++++++X++++++++o++++",
"++++++++++++++++++++++++++++++++++++++++++++++++++++++++++++++++",
"++++++++++++++++++++++++++++++++++++++++++++++++++++++++++++++++"
};
