/* XPM */
static char *_516289829329[] = {
/* columns rows colors chars-per-pixel */
"64 64 6 1 ",
"  c #272727",
". c #393939",
"X c #4E4E4E",
"o c gray36",
"O c #9B9B9B",
"+ c #FFFFFF",
/* pixels */
"++++++++++++++++++++++++++++++++++++++++++++++++++++++++++++++++",
"++++++++++++++++++++++++++++++++++++++++++++++++++++++++++++++++",
"++++++++++++++++++++++++++++++++++++++++++++++++++++++++++++++++",
"++++++++++++++++++++++++++++++++++++++++++++++++++++++++++++++++",
"++++++++++++++++++++++++++++++++++++++++++++++++++++++++++++++++",
"++++++++++++++++++++++++++++++++++++++++++++++++++++++++++++++++",
"++++++++++++++++++++++++++++++++++++++++++++++++++++++++++++++++",
"++++++++++++++++++++++++++++++++++++++++++++++++++++++++++++++++",
"++++++++++++++++++++++++++++++++++++++++++++++++++++++++++++++++",
"++++++++++++X+++++++++++++++++++X+++++++++++++++++++++++++++++++",
"+++++++++++++XX++++++++++++++++X++++++++++++++++++++++++++++++++",
"++++++++++++++XoooXXX+++++++++X++++++++++++++X++++++++++++++++++",
"++++++++++++++++++++XX++++++++o+++++++++++XoX+++++++++++++++++++",
"++++++++++++++++++++oX++++++++o++++++++++Xo+++++++++++++++++++++",
"++++++++++++++++++++oX+++++++XX+++++++++XX++++++++++++++++++++++",
"+++++++++++++++++++++oX+++++XX++++++++++X.++++++++++++++++++++++",
"+++++++++++++++++++++XXX+++XXX++++++++++X.++++++++++++++++++++++",
"+++++++++++++++++++++XXXX..XO+++++++++++XX++++++++++++++++++++++",
"++++++++++++++++++++++OOXXXX++++++++++++XX++++++++++++++++++++++",
"+++++++++++++++++++++++++X.X++++++++++..XO++++++++++++++++++++++",
"+++++++++++++++++++++++++X..++++++++X..XX+++++++++++++++++++++++",
"+++++++++++++++++++++++++X..++++++++XXXOO++++++++++X++++++++++++",
"+++++++++++++++++++++++++XXX.++++++X.XO++++++++..XX+++++++++++++",
"+++++++++++++++++++++++++OOXXXX++++..XO+++++++X.X+++++++++++++++",
"+++++++++++++++++++++++++++OX..XX...XXO+++++++XXO+++++++++++++++",
"+++++++++++++++++++++++++++OXX.....XXX++++++++.XO+++++++++++++++",
"++++++++++++++++++++++++++++XX.....XXX++++++++.X++++++++++++++++",
"+++++++++++++++++++++++++++++X.....XXXX+++++..XX++++++++++++++++",
"+++++++++++++++++++++++++++++XX. ...XXXXX....XXO++++++++++++++++",
"+++++++++++++++++++++++++++++X..  ...........XO+++++++++++++++++",
"+++++++++++++++++++++++++++++...     ........XO+++++++++++++++++",
"++++++++++++XXXX..++++++++++X..     ...X..X...X+++++++++++++++++",
"+++++++++++XX++XXX.X++++++XX..      ..XXOOOXXXX+++++++++++++++++",
"+++++++++Xo+++++OXXXXX...........   ..XO+++++X..++++++++++++++++",
"++++++++o++++++++OXXXXXX..............O+++++++..XX++++++++++++++",
"+++++++++++++++++++OOOOXX...OOOOOX...XO+++++++XXXoooo+++++++++++",
"+++++++++++++++++++++++OXX.++++++OX..X+++++++++++++++X++++++++++",
"++++++++++++++++++++++++XX+++++++++X.X++++++++++++++++++++++++++",
"++++++++++++++++++++++++X.+++++++++XXXX+++++++++++++++++++++++++",
"++++++++++++++++++++++++X.+++++++++XX.X+++++++++++++++++++++++++",
"+++++++++++++++++++++++X..++++++++++X..+++++++++++++++++++++++++",
"++++++++++++++++++++++X..X++++++++++X..+++++++++++++++++++++++++",
"++++++++++++++++++++XXXXXX++++++++++....++++++++++++++++++++++++",
"+++++++++++++++++++XXXOOOX++++++++++XXXXX.++++++++++++++++++++++",
"+++++++++++++++++++XXO+++X+++++++++++OOXXX..XXXX++++++++++++++++",
"+++++++++++++++++++XO++++XX+++++++++++++OX.X++++++++++++++++++++",
"++++++++++++++++++XX+++++++X+++++++++++++XXX++++++++++++++++++++",
"++++++++++++++++++..+++++++X++++++++++++++XX++++++++++++++++++++",
"+++++++++++++++++...+++++++X+++++++++++++++X++++++++++++++++++++",
"+++++++++++++XXXXX.+++++++XX+++++++++++++++o++++++++++++++++++++",
"++++++++++++XX+++++++++++X+++++++++++++++++oX+++++++++++++++++++",
"++++++++++++X++++++++++++++++++++++++++++++oo+++++++++++++++++++",
"++++++++++++o++++++++++++++++++++++++++++++++XX+++++++++++++++++",
"+++++++++++o+++++++++++++++++++++++++++++++++++X++++++++++++++++",
"++++++++++++++++++++++++++++++++++++++++++++++++++++++++++++++++",
"++++++++++++++++++++++++++++++++++++++++++++++++++++++++++++++++",
"++++++++++++++++++++++++++++++++++++++++++++++++++++++++++++++++",
"++++++++++++++++++++++++++++++++++++++++++++++++++++++++++++++++",
"++++++++++++++++++++++++++++++++++++++++++++++++++++++++++++++++",
"++++++++++++++++++++++++++++++++++++++++++++++++++++++++++++++++",
"++++++++++++++++++++++++++++++++++++++++++++++++++++++++++++++++",
"++++++++++++++++++++++++++++++++++++++++++++++++++++++++++++++++",
"++++++++++++++++++++++++++++++++++++++++++++++++++++++++++++++++",
"++++++++++++++++++++++++++++++++++++++++++++++++++++++++++++++++"
};
