/* XPM */
static char *_516289821204[] = {
/* columns rows colors chars-per-pixel */
"64 64 6 1 ",
"  c #272727",
". c #393939",
"X c #4E4E4E",
"o c gray36",
"O c #9B9B9B",
"+ c #FFFFFF",
/* pixels */
"++++++++++++++++++++++++++++++++++++++++++++++++++++++++++++++++",
"++++++++++++++++++++++++++++++++++++++++++++++++++++++++++++++++",
"++++++++++++++++++++++++++++++++++++++++++++++++++++++++++++++++",
"++++++++++++++++++++++++++++++++++++++++++++++++++++++++++++++++",
"++++++++++++++++++++++++++++++++++++++++++++++++++++++++++++++++",
"++++++++++++++++++++++++++++++++++++++++++++++++++++++++++++++++",
"++++++++++++++++++++++++++++++++++++++++++++++++++++++++++++++++",
"++++++++++X+++++++++++++++++++++++++++++++++++++++++++++++++++++",
"+++++++++++XX++++++++++++++++++++X++++++++++++++++++++++++++++++",
"++++++++++++X++++++++++++++++++XX++++++++++++++++++X++++++++++++",
"++++++++++++XXX+++++++++++++++XX++++++++++++++++ooX+++++++++++++",
"+++++++++++++XXoooXXXX++++++++XO+++++++++++++XXXo+++++++++++++++",
"++++++++++++ooO+++++XX++++++++o+++++++++++XoXX++++++++++++++++++",
"+++++++++XXO++++++++oX++++++++o+++++++++XXoO++++++++++++++++++++",
"++++++++o+++++++++++oXX++++++XX+++++++++XXO+++++++++++++++++++++",
"+++++++++++++++++++++oX++++.XX++++++++++X.O+++++++++++++++++++++",
"+++++++++++++++++++++XXX...XXX++++++++++X.X+++++++++++++++++++++",
"+++++++++++++++++++++XXXX..XO+++++++++++XXX+++++++++++++++++++++",
"++++++++++++++++++++++OOXXXXO++++++++++XXXO+++++++++++++++++++++",
"+++++++++++++++++++++++++X.XO++++++++X..XO++++++++++++++++++++++",
"+++++++++++++++++++++++++X..+++++++XX..XX+++++++++++++++++++++++",
"+++++++++++++++++++++++++X..X++++++XXXXOO++++++++.XXXXXX++++++++",
"+++++++++++++++++++++++++XXX.XX+++XX.XO++++++++..XXo+++o++++++++",
"+++++++++++++++++++++++++OOXXXXXXX...XO+++++++X.XO+++++oo+++++++",
"+++++++++++++++++++++++++++OX..XX...XXO+++++++XXO++++++++o++++++",
"+++++++++++++++++++++++++++OXX.....XXX++++++++.XO+++++++++++++++",
"++++++++++++++++++++++++++++XX.....XXX+++++++..X++++++++++++++++",
"++++++++++++++++++++++++++++XX.....XXXX++++...XX++++++++++++++++",
"++++++++++++++++++++++++++++XXX. ...XXXXX....XXO++++++++++++++++",
"++++++++++++++++++++++++++++XX..  ...........XO+++++++++++++++++",
"++++++++++++++++++++++++++++X...     ........XO+++++++++++++++++",
"+++++++++++XXXXX..+++++++++XX..     ...X..X...X+++++++++++++++++",
"+++++++++++XXOOXXX.X+++++XXX..      ..XXXXXXXXX+++++++++++++++++",
"+++++++++XoO++++OXXXXX...........   ..XXOOOOOX..++++++++++++++++",
"++++++++ooo++++++OXXXXXX..............XXO++++O..XX++++++++++++++",
"+++++ooo+++++++++++OOOOXX...XXXXXX...XXO++++++XXXooooXX+++++++++",
"++++o++++++++++++++++++OXX.XOOOOOXX..XXO+++++++++++++XX+++++++++",
"++++++++++++++++++++++++XXXO+++++OXX.XX+++++++++++++++X+++++++++",
"++++++++++++++++++++++++X.O++++++++XXXX++++++++++++++++X++++++++",
"++++++++++++++++++++++++X.+++++++++XX.X+++++++++++++++++++++++++",
"+++++++++++++++++++++++X..++++++++++X..+++++++++++++++++++++++++",
"++++++++++++++++++++++X..X++++++++++X..+++++++++++++++++++++++++",
"++++++++++++++++++++XXXXXX++++++++++....X+++++++++++++++++++++++",
"+++++++++++++++++++XXXOOOX++++++++++XXXXX...XX++++++++++++++++++",
"+++++++++++++++++++XXO+++X+++++++++++OOXXX..XXXXXX++++++++++++++",
"+++++++++++++++++++XO++++XX+++++++++++++OX.XOO++++X+++++++++++++",
"++++++++++++++++++XX+++++++X+++++++++++++XXX++++++++++++++++++++",
"++++++++++++++++++..+++++++XX+++++++++++++XX++++++++++++++++++++",
"+++++++++++++++++...+++++++XX++++++++++++++X++++++++++++++++++++",
"++++++++++++XXXXXX.++++++XXX+++++++++++++++oX+++++++++++++++++++",
"++++++++++++XXO+++++++++XX+++++++++++++++++oX+++++++++++++++++++",
"++++++++++++XO+++++++++X+++++++++++++++++++ooXXX++++++++++++++++",
"+++++++++++oo+++++++++o++++++++++++++++++++++XXX++++++++++++++++",
"+++++++++++oo++++++++++++++++++++++++++++++++++X++++++++++++++++",
"+++++++++++o+++++++++++++++++++++++++++++++++++X++++++++++++++++",
"+++++++++Xo++++++++++++++++++++++++++++++++++++X++++++++++++++++",
"++++++++X++++++++++++++++++++++++++++++++++++++X++++++++++++++++",
"++++++++++++++++++++++++++++++++++++++++++++++++o+++++++++++++++",
"++++++++++++++++++++++++++++++++++++++++++++++++++++++++++++++++",
"++++++++++++++++++++++++++++++++++++++++++++++++++++++++++++++++",
"++++++++++++++++++++++++++++++++++++++++++++++++++++++++++++++++",
"++++++++++++++++++++++++++++++++++++++++++++++++++++++++++++++++",
"++++++++++++++++++++++++++++++++++++++++++++++++++++++++++++++++",
"++++++++++++++++++++++++++++++++++++++++++++++++++++++++++++++++"
};
