/* XPM */
static char *_3dc64e6ac4545f1ea8cb125975cf2d2[] = {
/* columns rows colors chars-per-pixel */
"64 64 7 1 ",
"  c #464646",
". c gray47",
"X c gray61",
"o c #B4B4B4",
"O c #CBCBCB",
"+ c gainsboro",
"@ c gray100",
/* pixels */
"O@o o+..o. oo..Xo++..ooo.o.ooooooooooo.o.ooo..++oX..ooO@o .+o.o.",
"O+o o+o.o. oo...oo+o..oo.Xo..ooooooo..oX.oo..o+oo...ooO@o o+o o.",
"O+o  +o.o. oo ..oo++o..o..+o.........o+..o..o++oo.. ooO@o o+ .o.",
"O@o   o.o. oo ..Xoo++o....o+o.......o+o....o++ooX.. ooO@o o  .o.",
"O@o .  .o. oo ...ooo++o....++.......++....o++ooo... ooO@o   ..o.",
"O@o o.. o. ooo ...ooo++o...o+o.....o+o...o++ooo... oooO@o  .o.o.",
"O@o o+..o. ooo ....ooooo....+o.....o+....ooooo.... oooO@o .+o.o.",
"O+o o+o.o. ooo  ....XooX....oo.....oo....XooX....  oooO+o o+o o.",
"O+o  +o.o. oooo  ............o.....o............  ooooO@o o+ .o.",
"O@o   o.o. ooOo  ............X.....X............  ooooO@o o  .o.",
"O@o .  .o. oO+o   ....oooX.............Xooo....   ooooO@o   ..o.",
"O@o o.. o. o++oo  ....oooooX.........Xooooo....  oooooO@o  .o.o.",
"O@o o+..o. o+O.    ...ooooooo.......ooooooo...    .oooO@o .+o.o.",
"O@o o+o.o. oOo........oooooooX.....Xooooooo........oooO@o o+o o.",
"O@o  +o.o. oOoo.X.....Xoo+++oo.....oo+++ooX.....X.ooooO@o o+ .o.",
"O@o   o.o. oooo .oX....ooo+++oX...Xo+++ooo....Xo. ooooO+o o  .o.",
"O@o .  .o. ooooo .oX....Xoo+++o...o+++ooX....Xo. oooooO+o   ..o.",
"O@o o.. o. ooooo  .X......o+++o...o+++o......X.  oooooO@o  .o.o.",
"O@o o+..o. oooooo ..... ...o++o...o++o... ..... ooooooO+o .+o.o.",
"O@o o+o.o. oooooo  ....  ..Xo+oX.Xo+oX..  ....  ooooooO+o o+o o.",
"O@o  +o.o. oooooo   ...   ..oooo.oooo..   ...   ooooooO+o o+ .o.",
"O+o   o.o. oooooo.  ...  o .Xooo.oooX. o  ...  .ooooooO@o o  .o.",
"O+o .  .o. ooooooo...... oo..ooo.ooo..oo ......oooooooO@o   ..o.",
"O@o o.. o. ooooooo.X......  .ooo.ooo.  ......X.oooooooO@o  .o.o.",
"O@o o+..o. oooooooo.oX..... .oooXooo. .....Xo.ooooooooO@o .+o.o.",
"O@o o+o.o. oooooooo .oo.... .oooXooo. ....oo. ooooooooO@o o+o o.",
"O+o  +o.o. ooooooooo .oX.....o+ooooo.....Xo. oooooooOoO@o o+ .o.",
"O+o   o.o. ooooooOooo .o.....o+ooo+o.....o. oooooooO+oO+o o  .o.",
"O@o .  .o. oooooO++oo  .X....o+ooo+o....X.  ooooooO++oO+o   ..o.",
"O+o o.. o. ooooO+++ooo  .....o+ooo+o.....  ooooooO++OoO@o  .o.o.",
"O+o o+..o. oooO+++++oo  .....o+ooo+o.....  oooooO++OooO@o .+o.o.",
"O+o o+o.o. ooO+++++Ooo   ...Xo++o++oX...   ooooO++OoooO@o o+o o.",
"O+o  +o.o. oO+++++Ooooo  ..Xoo+++++ooX..  ooooO++OooooO+o o+ .o.",
"O+o   o.o. o+++++Oooooo  ..  o+++++o  ..  oooO++OoooooO+o o  .o.",
"O+o .  .o. o++++OooooOo   .. .o+++o. ..   ooO+++ooooooO@o   ..o.",
"O+o o.. o. o+++OooooO+oo  ..  .o+o.  ..  ooO++OoooooOoO+o  .o.o.",
"O+o o+..o. o++OooooO+Ooo  ..  .ooo.  ..  oo++OoooooO+oO+o .+o.o.",
"O+o o+o.o. o+OooooO+Oooo  ..  .ooo.  ..  oO+OoooooO++oO+o o+o o.",
"O+o  +o.o. oOooooO+Ooooo   ....ooo....   oOOoooooO+++oO+o o+ .o.",
"O+o   o.o. oooooO+Ooooooo  ..o+ooo+o..  ooOoooooO++++oO+o o  .o.",
"O+o .  .o. ooooO+Oooooooo   ..o+++o.    oOoooooO++++OoO+o   ..o.",
"O+o o.. o. oooO+Oooooooooo    .....    oooooooO++++OooO+o  .o.o.",
"O+o o+..o. ooO+Ooooooooooo             ooooooO++++OoooO+o .+o.o.",
"O+o o+o.o. oO+Ooooooooooooo           ooooooO++++OooooO+o o+o o.",
"O+o  +o.o. o+Ooooooooooooooo         ooooooO++++OoooooO+o o+ .o.",
"O+o   o.o. oOoooooooooooooooo       ooooooO++++OooooooO+o o  .o.",
"O+o .  .o. ooooooooooooooooooooooooooooooO++++OoooooooO+o   ..o.",
"O+o o.. o. oooooooooooooooooooooooooooooooooooooooooooO+o  .o.o.",
"O++++++++++++++++++++++++++++++++++++++++++++++++++++++++++++++.",
"O@@@@@@@@@@@@@@@@@+@@@@+@++@+@@@@@@@@@+@@@+@+++++@+@@@@@@+@+++o.",
"O@ooooooooooooooooooooooooooooooooooooooooooooooooooooooooooooo.",
"O@oo                                                         oo.",
"O@oo ... .. .......o .. .....o..oooo...oo .. ........ .. ... oo.",
"O@oo .. .... .....o .... ...o..oooo...oo .... ...... .... ...oo.",
"O@oo . ..oo.. ...o ..oo.. .o..o   ...oo ..oo.. .... ..oo.. ..oo.",
"O@oo  ..o  o.. oo ..o  o.. ooo ... .oo...o  o.. oo ..o  o.. .oo.",
"O+oo ..oo..oo......oo..oo...............oo..oo......oo..oo...oo.",
"O@oo .. o..o ..++.. o..o ..+++.....+++.. o..o ..++.. o..o ...oo.",
"O@oo +.. oo ..+oo+.. oo ..+ooo+...+ooo+.. oo ..+oo+.. oo ..+.oo.",
"O+oo o+..  ..+oooo+..  ..+ooooo+++ooooo+..  ..+oooo+..  ..+o.oo.",
"O@oo oo+....+oooooo+....+ooooooooooooooo+....+oooooo+....+oo.oo.",
"O+oo ........................................................oo.",
"O+ooooooooooooooooooooooooooooooooooooooooooooooooooooooooooooo.",
"O..............................................................."
};
