/* XPM */
static char *c5d8179d395b46f8c7aba4e979090f08[] = {
/* columns rows colors chars-per-pixel */
"64 64 14 1 ",
"  c #227264",
". c #AB5500",
"X c #B76F00",
"o c #269D4D",
"O c #22B14C",
"+ c #228B60",
"@ c #CC8900",
"# c #D79600",
"$ c #F1AE05",
"% c #A8E61D",
"& c #87C44C",
"* c #FBD352",
"= c #FFF9AD",
"- c gray100",
/* pixels */
"=============*++++++++++++++++++++++++++++++++++++*============$",
"=$$$$$$$$$$$$+++OOOOOOOOOOOOOOOOOOOOOOOOOOOOOOOOO++$$$$$$$$$$$$.",
"=$..$$####$$.$$**=*=========*OOOOOOO=========*=**$$.$$####$..$$.",
"=$.+*$####$.XX#$$$$$$$$$$$$$@OOOOOOO@$$$$$$$$$$$$XXX.*$###$.+*$.",
"=$$*=$$###$.X=..........@$$.+OOOOOOO+.$$@.........*..*$##$$$*=$.",
"=$$$$..$##$*=$++++++++++$$.+OOOOOO-%O+.$.+++++++++=**$##$..$$$$.",
"=$##$*+.$#$$$$OOOOOOOOO...+OOOOO-%&++++...OOOOOOOO=$###$.+*$##$.",
"=$###$*+.$###$OOOOO&&&O+++OOOO-%&O+++OOO++OOO&&&OO=$##$.+*$###$.",
"=$####$*+.$##$OOOO&&&&OOOOOOO-%O&&O+OOOOOOOO&&&OOO=$#$.+*$####$.",
"=$#####$=+.$#$OOO&&&&&OOOOOO-Oo%&&OOoOOOOOO&&&OOOO=$$.+=$#####$.",
"=$$$$$##$=+.$$OO&&&&&OOOOOO-%&%&&OOO+OOOOO&&&OOOOO=$.+=$##$$$$$.",
"=$$..*###$=+.$O&&&&&OOOOOO-%&&OOOOOO+OOOO&&&OOOOOO*.+=$###$..=$.",
"=$.XX=$$$$$*+.O&&&&OOOOOOO&&OO+ O&OO+OOO&&&OOOOOOO$+*$$$$$$.X.=.",
"*+$X=@......@+O&&&OOOOOOOOO+++++&&Oo+OO&&&OOOOOOOOO@........X.+@",
"++*#.++++++++OOOOOOOOOOOOOO+++O&%&O+oO&&&OOOOOOOOOO++++++++##.++",
"+O*$.+OOOOOOOOO-------%%OOOOOO&%&Oo O&&&O%%-------OOOOOOOO+*$.O+",
"+O=$.+*+OOOOO-%&OOOOOO&+OOOOOO&%&O +O&&OO+&OOOOOO&%-OOOO+=+*$.O+",
"+O=$$*$+OOO-%&OOOO&&&&&+OOOOO&%%&O +O&OOO+&&&&&OOOO&%-OO+*=$$.O+",
"+O=$$$.+OO-&OOOO&&&&&&O+OOOOO&%%&Oo+oOOOO+O&&&&&&OOOO&-O+@$$$.O+",
"+O=$$.+OO-&OOOO&&&&&%OO+OOOOO&%%&OO++OOOO+OO%&&&&&OOOO&-O+.$$.O+",
"+O*$.+OO-&OOOO&&&&%-OOO%+OOOO&-%%&OO++OO+%OOO-%&&&&OOOO&-O+.$.O+",
"+O..+OO-&OOOO&&&&%-OOOOO%%%%&%--%&&OO%%%%OOOOO-%&&&&OOOO&-O+..O+",
"+O++OO-&OOOO&&&&%-OOOOO&OOOO&%--%%&OOOOOO&OOOOO-%&&&&OOOO&-O++O+",
"+OOOO-&OOOOO&&&&%%OOOOOO&&&O&%--%%&&OO&&&OOOOOO%%&&&&OOOOO&-OOO+",
"+OOO-&OOOOO&&&&%-&OOOOOOOOOO&%--%%&&OOOOOOOOOOO&-%&&&&OOOOO&-OO+",
"+OOO%&OOOOO&&&&%-OOOOO&&OOOO&%%-%%&&OOOOO&&OOOOO-%&&&&OOOOO&%OO+",
"+OO-&      o&&&%%OOOO&&&&OOO&%%%%%&&OOOO&&&&OOOO%%&&&o      &-O+",
"+OO% +++++++ &%-&OOOO&&&&OOO&&%%%&&&OOOO&&&&OOOO&-%& +++++++ %O+",
"+OOoOOOOOo+++ %-OOOOO&&&&OOO&&%%%&&&OOOO&&&&OOOOO-%++++oOOOOOoO+",
"+OOO=*@OOOOo+++-OOOo    o&OOO&&%&&&OOOO&o    oOOO-+++oOOO*==OOO+",
"+OO=$.+OOOOOO++-Oo  ++++  OOO&&%&&&OOOo +++++  oO-++OOOOO+$$*OO+",
"+O=$.+OOO&&&OO+% +++++++++ OO&&&&&&OO ++++++++++ %+OOOOOOO+*$.O+",
"+O=$.+OO&&&OOOOoOOOOOo++++ oOO&&&&OOo++++++oOOOOOoOOOOOOOO+*$.O+",
"+O=$.+O&&&OOOOOOOOOOOOOo+++ OO&&&&OO +++++OOOOOOOOOOOOOO&O+=$.O+",
"+O=$.+O&&OOOO=OOOOOOOOOOO+++oO&&&&OO ++++OOOOOOOOO=OOOO&&O+=$.O+",
"+O=$.+O&OOOO*=$OOOOOOOOOOO+++OO&&%&Oo+++oOOOOOOOO*=$OO&&&O+=$.O+",
"+O=$.+OOOOO*=.@$OOOOOOOOOOo++oO&&-&&O+++OOOOOOOO*=.@$O&&&O+=$.O+",
"+O=$.+OOOO*=@%.@$OOOOOOO&OO+++OO&%-%&O++OOOOOOO*=@%.@$O&OO+=$.O+",
"+O=$.+OOO*=@%%&.@$OOOOO&&OOO++ O&&--%&o+oOOOOO*=@%%&.@$OOO+=$.O+",
"+O=$.+OO*=@%%-&&.@$OOO&&OOO&O++ O&&--&O++OOOO*=@%%-&&.@$OO+=$.O+",
"+O=$.+O==.&OO&+++*=.O&&OOO&&OO++ O&-%&O++OOO==.&OO&+++*=.O+=$.O+",
"+O=$.+O+$@.&O&++*=.+O&OOO&&&&OO+ O&-&&O++OOO+$@.&O&++*=.+O+*$.O+",
"+O*$.+O++$@.&&+*=.++OOOO&&&&&OO+O&%&&Oo+oOOO++$@.&&+*=.++O+=$.O+",
"+O*$.+OO++$@.&*=.++OOOO&&&&&OOO&%&&OOO++oOOOO++$@.&*=.++OO+*$.O+",
"+O=$.+OOO++$@*=.++OOOO&&&&&OOO%-&OOOo ++OOOOOO++$@*=.++OOO+*$.O+",
"+O*$.+OOOO++$=.++OOOO&&&&&OO&%-&OOo +++OOOOOO&O++$=.++OOOO+*$.O+",
"+O*$.+OOOOO++.++OOOO&&&&&OOO%-&OO ++++OOOOOO&&OO++.++OOOOO+*$.O+",
"+O*$.+OOOOOO+++OOOO&&&&&OOOO--&O ++++OOOOOO&&&OOO+++OOOOOO+*$.O+",
"+O*$.+OOOOOOOOOOOO&&&&&OOOOO%-&O +++OOOOOO&&&&OOOOOOOOOOOO+*$.++",
"++*$.+OOOOOOOOOOO&&&&&OOOOOOO%%&O+++OOOOO&&&&OOOOOOOOOOOOO+##.++",
"*+##========*+OO&&&&&OOOOOOO+OO%&Oo+OOOO&&&&OOOOOO+$*=====*$.X+$",
"=*XX.$$$$$$.+@+O&&&&OOOOOOOOo+ oOOOooOO&&&&OOOOOO+=+.$$$$$$.X.=.",
"=$*X.$###$.+*.+O&&&OOOOOOOOOOo+  oOO+O&&&&OOOOOOO+==+.$###$..=$.",
"=$$=*$##$.+*$.+O&&OOOOOOOOOOOOO++ OO+O&&&OOOOOOOO+=$=+.$##$*=$$.",
"=$$$$$#$.+*$$.+O&OOOOOOOOOOOOOOO+&Oo+O&&OOOOOOOOO+=$$*+.$#$$$$$.",
"=$####$.+*$#$.+OOOOOOOOOOOOOOOOO&OO+oO&OOOOOOOOOO+=$#$*+.$####$.",
"=$###$.+=$##$.+OOOOOOOOOOOOOOOOO%O +OOOOOOOOOOOOO+=$##$*+.$###$.",
"=$##$.+=$###$.+OOOOOOOO===OOOOOO% +OOOO==*OOOOOOO+=$###$=+.$##$.",
"=$$$$*=$##$$$.+OOOOOOOOO$$=OO%&+%+&%+O=$$OOOOOOOO+=$$$$#$*=$$$$.",
"=$..$$$###$...X$**=====*$$$*O+OO%OO++=$$$*=====*$#*..*$##$$..$$.",
"=$.O*$####$.X.X$$$$$$$$$$$$$*O+O&O++=$$$$$$$$$$$$#XX.=$###$.+*$.",
"=$$*=$####$*................@OO+O +O@...............=$$###$$*=$.",
"*$$$$$$$$$$$*++OOOOOOOOOOOOOOOOO +OOOOOOOOOOOOOOO++=$$$$$$$$$$$.",
"$............$++++++++++++++++++++++++++++++++++++$............."
};
