/* XPM */
static char *f96eb58d5429414ffe888e6928936b16[] = {
/* columns rows colors chars-per-pixel */
"64 64 4 1 ",
"  c #CBB283",
". c #EBD2A3",
"X c #FFF9BD",
"o c None",
/* pixels */
"ooooooooooooo ooooooooooooooooooooooooooooooo oooooooooooooooooo",
"oooooooooooooo oooooooooooooooooooooooooooooo oooooooooooooooooo",
"ooooooooooooooo oooooooooooooooooooooooooooo ooooooooooooooooooo",
"ooooooooooooooo oooooooooooooooooooooooooooo ooooooooooooooooooo",
"oooooooooooooooo ooooooooooooooooooooooooooo ooooooooooooooooooo",
"oooooooooooooooo oooooooooooooooooooooooooo oooooooooooooooooooo",
"ooooooooooooooooo.ooooooooooooooooooooooooo oooooooooooooooooooo",
"ooooooooooooooooo.ooooooooooooooooooooooooo oooooooooooooooooooo",
"oooooooooooooooooo. oooooooooooooooooooooo ooooooooooooooooooooo",
"oooooooooooooooooo.    ooooooooooooooooooo.ooooooooooooooooooooo",
"oooooooooooooooooo .ooo...XXoooooooooooo  .ooooooooooooooooooooo",
"oooooooooooooooooo .ooooooooXXXXXXXX...  o. oooooooooooooooooooo",
"oooooooooooooooooo o.oooooooooooooooooooo.  oooooooooooooooooooo",
"oooooooooooooooooo o.ooooooooooooooooooooXo oooooooooooooooooooo",
"oooooooooooooooooo.oo. oooooooooooooooooo.oo.ooooooooooooooooooo",
"ooooooooooooooooooXoo.o  .oooooooooooooo.ooo.ooooooooooooooooooo",
"oooooooooooooooooXoooo.ooo..XXoooooooooo.ooo.ooooooooooooooooooo",
"oooooooooooooooooXoooo.oooooooXXXXX..... oooo.oooooooooooooooooo",
"ooooooooooooooooXoooooo.ooooooooooooooo. ooooXoooooooooooooooooo",
"ooooooooooooooooXoooooo.ooooooooooooooo. oooooXooooooooooooooooo",
"oooooooooooooooXoooooo .ooooooooooooooo. ooooooXoooooooooooooooo",
"ooooooooooooooXooooooo o.oooooooooooooXoo oooooo..oooooooooooooo",
"oooooooooooooXoooooooo.o.oooooooooooooXoo.oooooooo.Xoooooooooooo",
"ooooooooooooXoooooooooXoo.oooooooooooo.oo.oooooooooo...oooooooo ",
"oooooooooooXoooooooooXoooo  oooooooooXooo.ooooooooooooo   oo.  o",
"oooooooooo.oooooooooo.oooo ..Xooooooo.ooooXooooooooooooooo. oooo",
"oooooooo..oooooooooo.ooooo .ooXXXooo. ooooXooooooooooooo..oooooo",
"oooooo..ooooooooooo.oooooo o.ooooXXX. oooooXoooooooooo... oooooo",
"oo    oooooooooooo.oooooooXo.oooooo.o oooooo oooooo...oo ooooooo",
"...oooooooooooooo.ooooooooXoo.ooooo.o.ooooooo  o...oooo oooooooo",
"ooo...oooooooooo.oooooooooXooo.oooXoo ooooooo...  oooo ooooooooo",
"oooooo...ooooo .ooooooooo.oooooXooXooo oooXX.oo  ooooo ooooooooo",
"ooooooo o ..  ooooooooooo oooooo  oooo..XXooooo ooooo oooooooooo",
"oooooooo oooo....ooooooo oooooo oo ...oo ooooo.oooooo.oooooooooo",
"ooooooooo ooooooo...XXXXoooooo ooo oooo ooooo.ooooooXooooooooooo",
"oooooooooo ooooooo ooo  .XX.. oooo oooXooooo.ooooooo.ooooooooooo",
"oooooooooo oooooooo ooo oooooo oo oooXooooo.ooooooo.oooooooooooo",
"ooooooooooo.oooooooo.ooo ooooo.   oooXooooo.ooooooo.oooooooooooo",
"ooooooooooo.ooooooooo.ooo.oooo.oo.ooXooooo.oooooooo.oooooooooooo",
"oooooooooooo.ooooooooXooooXooo.ooo.o.oooooXooooooo.ooooooooooooo",
"ooooooooooooXoooooooooXooooXoXoooo.o.ooooXoooooooo.ooooooooooooo",
"oooooooooooooXooooooooXoooo oXoooo..ooooo.ooooooo.oooooooooooooo",
"oooooooooooooXoooooooooXoooo X     .ooooXoooooooo.oooooooooooooo",
"oooooooooooooXoooooooooXoooo X oooo..ooo.oooooooo.oooooooooooooo",
"ooooooooooooooXoooooooooXooo.ooooooo.oo.oooooooo.ooooooooooooooo",
"ooooooooooooooXoooooooooXooo.ooooooo.oo.oooooooo.ooooooooooooooo",
"ooooooooooooooXoooooooooo.o.ooooXXX..o ooooooooo.ooooooooooooooo",
"oooooooooooooooXooooooooo o.  XXooooX  oooooooo.oooooooooooooooo",
"oooooooooooooooXooooooooo o  ooooooooXooooooooo.oooooooooooooooo",
"ooooooooooooooo.ooooooooo .ooooooooooo.oooooooo.oooooooooooooooo",
"ooooooooooooooo.ooooooooo. ooooooooooo.oooooooo.oooooooooooooooo",
"ooooooooooooooo.oooooooo..ooooooooooooo.ooooooo.oooooooooooooooo",
"oooooooooooooooo.ooooooo.oooooooooooooo.oooooo.ooooooooooooooooo",
"oooooooooooooooo.oooooo.oooooooooooooooo.ooooo.ooooooooooooooooo",
"oooooooooooooooo ooooo.oooo..XXXXX....  .ooooo.ooooooooooooooooo",
"oooooooooooooooo oooo.oo...oooooooooooooo.oooo ooooooooooooooooo",
"oooooooooooooooo ooo.   oooooooooooooooooo.ooo ooooooooooooooooo",
"oooooooooooooooo oo. oooooooooooooooooooooo o oooooooooooooooooo",
"oooooooooooooooo o.ooooooooooooooooooooooooo. oooooooooooooooooo",
"oooooooooooooooo .ooooooooooooooooooooooooooo.oooooooooooooooooo",
"oooooooooooooooo.ooooooooooooooooooooooooooooo ooooooooooooooooo",
"ooooooooooooooo ooooooooooooooooooooooooooooooo oooooooooooooooo",
"oooooooooooooo ooooooooooooooooooooooooooooooooo ooooooooooooooo",
"ooooooooooooo ooooooooooooooooooooooooooooooooooo oooooooooooooo"
};
